/* XPM */
static const char * logo64_xpm[] = {
"64 64 285 2",
"  	c None",
"! 	c black",
"# 	c #E28080",
"$ 	c #F70000",
"% 	c #E40000",
"& 	c #C50000",
"' 	c #9B0000",
"( 	c #700000",
") 	c #FF0000",
"* 	c #FE0000",
"+ 	c #EB0000",
", 	c #C40000",
"- 	c #8A0000",
". 	c #500000",
"0 	c #290000",
"1 	c #DB0000",
"2 	c #BD0000",
"3 	c #970000",
"4 	c #FC0000",
"5 	c #E20000",
"6 	c #B50000",
"7 	c #800000",
"8 	c #5B0000",
"9 	c #B90000",
": 	c #710000",
"; 	c #300000",
"< 	c #080000",
"= 	c #808080",
"> 	c #F50000",
"? 	c #DD0000",
"@ 	c #B80000",
"A 	c #5D0000",
"B 	c #E80000",
"C 	c #B30000",
"D 	c #770000",
"E 	c #4D0000",
"F 	c #F80000",
"G 	c #FA0000",
"H 	c #E90A0A",
"I 	c #A30000",
"J 	c #510000",
"K 	c #0F0000",
"L 	c #B20000",
"M 	c #780000",
"N 	c #410000",
"O 	c #170000",
"P 	c #FB0000",
"Q 	c #AF0000",
"R 	c #6F0000",
"S 	c #400000",
"T 	c #F10000",
"U 	c #EE0000",
"V 	c #EB0202",
"W 	c #D80E0E",
"X 	c #850000",
"Y 	c #330000",
"Z 	c #F60202",
"[ 	c #D50000",
"] 	c #9F0000",
"^ 	c #5F0000",
"_ 	c #230000",
"` 	c #EF0000",
"a 	c #F40000",
"b 	c #F30000",
"c 	c #F31616",
"d 	c #A70000",
"e 	c #640000",
"f 	c #320000",
"g 	c #160000",
"h 	c #E10000",
"i 	c #D70000",
"j 	c #620000",
"k 	c #130000",
"l 	c #FD0000",
"m 	c #FE1616",
"n 	c #C30000",
"o 	c #860000",
"p 	c #CA0000",
"q 	c #B60000",
"r 	c #9C0000",
"s 	c #E00000",
"t 	c #DE0000",
"u 	c #D50A0A",
"v 	c #960000",
"w 	c #530000",
"x 	c #1F0000",
"y 	c #010000",
"z 	c #D10000",
"{ 	c #920000",
"| 	c #430000",
"} 	c #F90000",
"~ 	c #F30404",
" !	c #F72020",
"!!	c #A80000",
"#!	c #680000",
"$!	c #270000",
"%!	c #DF0000",
"&!	c #CB0000",
"'!	c #6B0000",
"(!	c #C10000",
")!	c #3C0000",
"*!	c #060000",
"+!	c #CE0000",
",!	c #730000",
"-!	c #F20000",
".!	c #E50606",
"0!	c #C20404",
"1!	c #890000",
"2!	c #4E0000",
"3!	c #E50000",
"4!	c #AC0000",
"5!	c #5A0000",
"6!	c #390000",
"7!	c #AA0000",
"8!	c #AB0000",
"9!	c #1E0000",
":!	c #BB0000",
";!	c #940000",
"<!	c #E70000",
"=!	c #CE0202",
">!	c #6E0000",
"?!	c #350000",
"@!	c #F60000",
"A!	c #A00000",
"B!	c #760000",
"C!	c #4B0000",
"D!	c #2A0000",
"E!	c #140000",
"F!	c #9A0000",
"G!	c #7E0000",
"H!	c #440000",
"I!	c #A50000",
"J!	c #6D0000",
"K!	c #D00000",
"L!	c #D90000",
"M!	c #D30000",
"N!	c #870000",
"O!	c #FF1616",
"P!	c #DE0A0A",
"Q!	c #450000",
"R!	c #250000",
"S!	c #0B0000",
"T!	c #8C0000",
"U!	c #220000",
"V!	c #880000",
"W!	c #720000",
"X!	c #3E0000",
"Y!	c #CD0000",
"Z!	c #C00000",
"[!	c #650000",
"]!	c #240000",
"^!	c #F10202",
"_!	c #FB2020",
"`!	c #C30404",
"a!	c #840000",
"b!	c #630000",
"c!	c #210000",
"d!	c #7B0000",
"e!	c #750000",
"f!	c #540000",
"g!	c #190000",
"h!	c #BA0000",
"i!	c #BE0000",
"j!	c #A60000",
"k!	c #EE0A0A",
"l!	c #910000",
"m!	c #790000",
"n!	c #600000",
"o!	c #550000",
"p!	c #A10000",
"q!	c #7F0000",
"r!	c #470000",
"s!	c #030000",
"t!	c #EF0202",
"u!	c #E00A0A",
"v!	c #3D0000",
"w!	c #100000",
"x!	c #1D0000",
"y!	c #B40000",
"z!	c #9E0000",
"{!	c #820000",
"|!	c #EC0A0A",
"}!	c #CD0606",
"~!	c #8E0000",
" #	c #7D0000",
"!#	c #580000",
"##	c #340000",
"$#	c #2F0000",
"%#	c #F20606",
"&#	c #E30E0E",
"'#	c #B70000",
"(#	c #7A0000",
")#	c #690000",
"*#	c #4F0000",
"+#	c #280000",
",#	c #EC0E0E",
"-#	c #CB0606",
".#	c #8D0000",
"0#	c #740000",
"1#	c #D80000",
"2#	c #D20000",
"3#	c #A90000",
"4#	c #990000",
"5#	c #E90404",
"6#	c #D70A0A",
"7#	c #B00000",
"8#	c #E60000",
"9#	c #AD0000",
":#	c #BC0000",
";#	c #C0C0C0",
"<#	c #EA0000",
"=#	c #D60202",
">#	c #D40000",
"?#	c #C90000",
"@#	c #BF0000",
"A#	c #AE0000",
"B#	c #DA0000",
"C#	c #5E0000",
"D#	c #D60000",
"E#	c #B10000",
"F#	c #A40000",
"G#	c #8F0000",
"H#	c #7C0000",
"I#	c #DC0000",
"J#	c #C70000",
"K#	c #9D0000",
"L#	c #5C0000",
"M#	c #F80202",
"N#	c #F20A0A",
"O#	c #DE0606",
"P#	c #CE0404",
"Q#	c #980000",
"R#	c #930000",
"S#	c #2C0000",
"T#	c #FA0404",
"U#	c #FF2020",
"V#	c #E71616",
"W#	c #BD0202",
"X#	c #950000",
"Y#	c #180000",
"Z#	c #E51616",
"[#	c #590000",
"]#	c #F30A0A",
"^#	c #E81616",
"_#	c #B90202",
"`#	c #8B0000",
"a#	c #900000",
"b#	c #ED0000",
"c#	c #E70E0E",
"d#	c #BE0202",
"e#	c #830000",
"f#	c #E50404",
"g#	c #CF0606",
"h#	c #660000",
"i#	c #4A0000",
"j#	c #E90000",
"k#	c #DB0606",
"l#	c #3B0000",
"m#	c #F00000",
"n#	c #EC0000",
"o#	c #310000",
"p#	c #6A0000",
"q#	c #520000",
"r#	c #0E0000",
"s#	c #670000",
"t#	c #4C0000",
"u#	c #260000",
"v#	c #CC0000",
"w#	c #150000",
"x#	c #480000",
"y#	c #610000",
"z#	c #560000",
"{#	c #110000",
"|#	c #0A0000",
"}#	c #460000",
"~#	c #0D0000",
" $	c #1A0000",
"!$	c #020000",
"#$	c #6C0000",
"$$	c #3A0000",
"%$	c #490000",
"&$	c #3F0000",
"'$	c #CF0000",
"($	c #370000",
")$	c #070000",
"                                                                                                                                ",
"                                                                                                                                ",
"                                                                                                                                ",
"                                              # $ % & ' (                                                                       ",
"                                            # ) * + , - . 0                 # 1 2 3                                             ",
"                    # 4 5 6 7 8             ) ) ) + 9 : ; < =             ) > ? @ - A                                           ",
"                  # ) ) B C D E           # F G $ H I J K ! !           ) ) $ ? L M N O                                         ",
"                  P ) * B Q R S 0         T U U V W X Y ! ! !         # ) ) Z [ ] ^ _ ! =                                       ",
"                  ` a b c d e f O g       B 5 h i Q j k ! ! !       # l 4 F m n o N < ! !                   # # p q r           ",
"                  1 s t u v w x y !       1 [ z n { | ! ! ! !       G } $ ~  !!!#!$!! ! !               # ) b %!&!L { '!        ",
"                  (!& , L 7 )!*!! !       +!&!& Q ,!x ! ! ! =       -!-!U .!0!1!2!k ! ! !             # ) ) F 3!&!4!X 5!6!      ",
"                  7!8!7!v e 9!! ! !       :!:!C ;!2!! ! ! !         <!B h =!I >!?!! ! ! !             ) ) ) @!h & A!B!C!D!E!    ",
"                  ' F!v G!H!! ! ! !       I!I!3 J!x ! ! ! =       K!L!1 M!q N!E k ! ! ! !           # 4 l } O!P!6 { '!Q!R!S!=   ",
"                    T!7 j U!! ! ! !         V!W!X!! ! ! !         n &!Y!Z!r [!]!! ! ! ! =           P P F ^!_!`!I a!b!| c!y !   ",
"                    d!#!N ! ! ! ! =         e!f!g!! ! ! =         h!i!h!j!B!?!! ! ! ! !           # 4 G b k!u 4!l!m!n!N g!! !   ",
"                    #!E _ ! ! ! !             o!k ! ! =           6 Q p!q!r!s!! ! ! ! =           * l F t!u!@ F!N!: 8 v!w!! !   ",
"                      | x!! ! !                                   y!z!{!J k ! ! ! ! =           # ) 4 a |!}!!!~! #J!!###y ! !   ",
"                        = $#=                                       3 [!$!! ! ! ! =             # * } %#&#'#F!N!(#)#*#+#! ! !   ",
"                                                                      A k ! ! ! =             # G } -!,#-#d .#(#0#j | g ! ! !   ",
"                            # # ? 1#M!z 2#M!2#p :!3#4#4## #             D!! =                 -!a -!5#6#7#v a!(#J!o!; ! ! ! !   ",
"                        ) G -!+ 8#%!L!M!K!Y!p n h!Q j!d 9#7#L q :#;#                          B <#3!=#q r N!(#( ^ N g ! ! ! !   ",
"                      ) ) F T + 3!? >#Y!?#, @#:!6 A#8!Q C L A#4!8!4!7!] =                   # 1 B#2#:#A!1!m!J!C#r!]!! ! ! ! =   ",
"                    ) ) l a <#s D#Y!, h!q L Q A#3#d !!A#E#Q 7!d F#F#p!' G#H#>!=             I#z J#@ K#q!'!L#E )!_ ! ! ! ! !     ",
"                  ) ) ) M#N#O#P#2 E#j!K#' Q#v v v 3 K#F#j!F#I p!] ] A!' R#1!q!D ,!=         ? & Q R#R J )!S#9!K ! ! ! ! ! =     ",
"                ) ) ) T#U#V#W#8!z!X#T!1!1!V!N!X X V!.#l!R#R#;!v Q#r ] F!;!G#V!7 d!d!=         C 1!L#?!Y#< ! ! ! ! ! ! ! !       ",
"              * ) l M#U#Z#q A!{ V!X 7 {!{!q!G!q!q!7 {!{!7 a!N!T!G#l!v X#R#{ .#o {! #m!a!=     v [#U!! ! ! ! ! ! ! ! ! =         ",
"              P P @!]#^#_#K#`#X (#(#(#(#(#(#(#(#(#(#(#(#H#G!G!q!a!o 1!`#T!a#G#`#N!G!e!: d!=     R!! ! ! ! ! ! ! ! ! =           ",
"            # F @!b#c#d#A!T!{!(#(#(#(#(#(#(#(#(#(#(#(#(#(#(#(#(#(#d!G!e#a!V!- - N! #W!#!b!b!=     ! ! ! ! ! ! ! =               ",
"            > > T f#g#8!R#X (#(#(#(#(#(#(#(#(#(#(#(#(#(#(#(#(#(#(#(# #H# #7 e#e#a!d!: h#!#i###=                                 ",
"            -!T j#k#@ ' - 7 (#(#(#(#(#(#(#(#(#(#(#(#(#(#(#(#(#(#(#(#(#(#H#H# #G!q!d!W!h#J l#x !                                 ",
"          # m#b#s P#9#R#X (#(#(#(#(#(#(#(#(#(#(#(#(#(#(#(#(#(#(#(#(#(#(#(#(#H#H#H#(#,!#!J ##E!! =                               ",
"          n#n#B i 2 I `#(#(#(#(#(#(#(#(#(#(#(#(#(#(#(#(#(#(#(#(#(#(#(#(#(#(#(#(#m!D ,!#!J o#K ! !                               ",
"          j#j#h +!E#3 X (#(#(#(#(#(#(#(#(#(#(#(#(#(#(#(#(#(#(#(#(#(#(#(#(#(#(#(#(#M ,!p#q#o#r#! !                               ",
"        # j#<!1 & !!a#7 (#(#(#(#(#(#(#(#(#(#(#(#(#(#(#(#(#(#(#(#(#(#(#(#(#(#(#(#(#D e!'!w Y S!! !                               ",
"        B B % D#i!A!`#q!(#(#(#(#(#(#(#(#(#(#(#(#(#(#(#(#(#(#(#(#(#(#(#(#(#(#(#(#(#(#,!)#q#; s!! !                               ",
"        j#B 5 z '#r V!(#(#(#(#(#(#(#(#(#(#(#(#(#(#(#(#(#(#(#(#(#(#(#(#(#(#(#(#(#(#(#: s#t#u#! ! !                               ",
"      # B B %!v#A#X#X (#(#(#(#(#(#(#(#(#(#(#(#(#(#(#(#(#(#(#(#(#(#(#(#(#(#(#(#(#(#(#R C#S w#! ! !                               ",
"      # B 3!B#, 3#a#7 (#(#(#(#(#(#(#(#(#(#(#(#(#(#(#(#(#(#(#(#(#(#(#(#(#(#,!,!( >!)#A x#u#! ! ! !                               ",
"      B B 5 [ :#] `#q!(#(#(#(#(#(#(#(#(#(#(#(#(#(#(#(#(#(#(#(#(#(#(#,!( J!)#h#y#z#i#)!]!! ! ! ! !                               ",
"      <!<!h z q 4#V!(#(#(#(#(#(#(#(#(#(#(#(#(#(#(#(#(#(#(#(#(#,!R J!s#y#5!*#H!)!$#c!{#! ! ! ! ! =                               ",
"      % 3!t &!A#X#X (#(#(#(#(#(#(#(#(#(#(#(#(#(#(#(#(#(#(#,!( )#j !#x#6!o#_ O |#! ! ! ! ! ! ! =                                 ",
"    # s s 1#, !!a#7 (#(#(#(#(#(#(#(#(#(#(#(#(#(#(#(#(#,!( p#e z#}#Y 9!~#! ! ! ! ! ! ! ! ! ! =                                   ",
"    # s t M!:#A!`#q!(#(#(#(#(#(#(#(#(#(#(#(#(#(#(#,!R p#e z#}#Y  $!$! ! ! ! ! ! ! ! ! ! =                                       ",
"    5 5 t K!q F!N!(#(#(#(#(#(#(#(#(#(#(#(#(#(#(#,!J!b!z#}#Y  $! ! ! ! ! ! ! ! ! ! =                                             ",
"    3!8#%!Y!L Q#o (#(#(#(#(#(#(#(#(#(#(#(#(#(#R #!8 x#Y  $! ! ! ! ! ! ! ! ! =                                                   ",
"    5 % ? p 7#v X (#(#(#(#(#(#(#(#(#(#(#(#,!#$b!w $$9!s!! ! ! ! ! ! ! = =                                                       ",
"  # %!s 1#, 3#a#q!(#(#(#(#(#(#(#(#(#(#(#( )#L#%$$#w!! ! ! ! ! ! ! =                                                             ",
"  # %!t M!:#A!- (#(#(#(#(#(#(#(#(#(#,!( s#z#&$c!! ! ! ! ! ! ! ! =                                                               ",
"  t h t K!q F!N!(#(#(#(#(#(#(#(#,!R p#j *###w#! ! ! ! ! ! ! =                                                                   ",
"  t % %!Y!L Q#o (#(#(#(#(#(#(#,!J!b!z#H!S#|#! ! ! ! ! ! =                                                                       ",
"  L!? L!J#9#{ e#(#(#(#(#(#,!R #!8 x#Y Y#! ! ! ! ! ! !                                                                           ",
"  '$2#Y!:!F#.# #(#(#(#(#,!J!b!w $$9!s!! ! ! ! ! ! =                                                                             ",
"  Z!n i!7#' -  #(#(#0#( #!8 x#$#w!! ! ! ! ! ! !                                                                                 ",
"  C L A#p!l!e#m!B!0#J!j *#6!9!! ! ! ! ! ! ! =                                                                                   ",
"  d p!' l!X (#W!p#j o!H!S#r#! ! ! ! ! ! !                                                                                       ",
"  F!l!1! #W!#!A . | ; O ! ! ! ! ! ! ! =                                                                                         ",
"  T! #R y#w Q!($+#O ! ! ! ! ! ! ! !                                                                                             ",
"    y#t#$$$!O )$! ! ! ! ! ! ! ! =                                                                                               ",
"      $!w!! ! ! ! ! ! ! ! ! =                                                                                                   ",
"        ! ! ! ! ! ! ! ! ! =                                                                                                     ",
"            = ! ! ! =                                                                                                           ",
"                                                                                                                                ",
"                                                                                                                                ",
"                                                                                                                                "};