/* XPM */
static const char * logo32_xpm[] = {
"32 32 222 2",
"  	c None",
"! 	c white",
"# 	c #FAF6F6",
"$ 	c #FEFDFD",
"% 	c #FBF7F7",
"& 	c #D5ABAB",
"' 	c #F1E5E5",
"( 	c #FDFCFC",
") 	c #F2E6E6",
"* 	c #BC7878",
"+ 	c #B56C6C",
", 	c #EEDEDE",
"- 	c #FEFEFE",
". 	c #FCFAFA",
"0 	c #B26666",
"1 	c #830F0F",
"2 	c #973333",
"3 	c #F4EAEA",
"4 	c #EBD9D9",
"5 	c #BA7575",
"6 	c #E6CBCB",
"7 	c #DDBFBF",
"8 	c #820E0E",
"9 	c #7E0505",
": 	c #B67070",
"; 	c #F8F1F1",
"< 	c #D7AFAF",
"= 	c #8B2121",
"> 	c #7D0000",
"? 	c #8B1C1C",
"@ 	c #F2E7E7",
"A 	c #B56F6F",
"B 	c #800808",
"C 	c #B56B6B",
"D 	c #FDFBFB",
"E 	c #FAF5F5",
"F 	c #DEBFBF",
"G 	c #850E0E",
"H 	c #780000",
"I 	c #983D3D",
"J 	c #E6CDCD",
"K 	c #CB9797",
"L 	c #851515",
"M 	c #7C0000",
"N 	c #8E2222",
"O 	c #F3E8E8",
"P 	c #C68D8D",
"Q 	c #800707",
"R 	c #7E0000",
"S 	c #9E3D3D",
"T 	c #E6CECE",
"U 	c #E1C1C1",
"V 	c #AD5D5D",
"W 	c #CFA1A1",
"X 	c #F7F0F0",
"Y 	c #E2C8C8",
"Z 	c #8D2020",
"[ 	c #770000",
"] 	c #983B3B",
"^ 	c #E5CBCB",
"_ 	c #CE9D9D",
"` 	c #861818",
"a 	c #7B0101",
"b 	c #A54F4F",
"c 	c #F6EEEE",
"d 	c #972E2E",
"e 	c #7F0000",
"f 	c #E7CFCF",
"g 	c #A85959",
"h 	c #7D0404",
"i 	c #7C0A0A",
"j 	c #B97777",
"k 	c #AB6363",
"l 	c #780808",
"m 	c #BB7979",
"n 	c #F9F2F2",
"o 	c #953131",
"p 	c #902525",
"q 	c #EAD8D8",
"r 	c #F3E7E7",
"s 	c #8F1F1F",
"t 	c #830909",
"u 	c #B97474",
"v 	c #D2A6A6",
"w 	c #8D1E1E",
"x 	c #8E1F1F",
"y 	c #E2C6C6",
"z 	c #BF7F7F",
"{ 	c #E9D3D3",
"| 	c #D8B0B0",
"} 	c #F9F5F5",
"~ 	c #8F2020",
" !	c #850D0D",
"!!	c #AC5959",
"#!	c #F0E0E0",
"$!	c #EAD6D6",
"%!	c #A14747",
"&!	c #7D0101",
"'!	c #800000",
"(!	c #850C0C",
")!	c #C08383",
"*!	c #FBF8F8",
"+!	c #FCF9F9",
",!	c #FDFAFA",
"-!	c #F7EFEF",
".!	c #B87171",
"0!	c #C78F8F",
"1!	c #C18787",
"2!	c #830B0B",
"3!	c #840A0A",
"4!	c #C08282",
"5!	c #F8F2F2",
"6!	c #E2C7C7",
"7!	c #C89393",
"8!	c #EAD5D5",
"9!	c #E5CDCD",
":!	c #9E3F3F",
";!	c #8A1919",
"<!	c #F1E6E6",
"=!	c #F0E1E1",
">!	c #BC7A7A",
"?!	c #952C2C",
"@!	c #8A1616",
"A!	c #891515",
"B!	c #942A2A",
"C!	c #A85151",
"D!	c #C28888",
"E!	c #F5EBEB",
"F!	c #C99696",
"G!	c #850F0F",
"H!	c #7F0303",
"I!	c #9C3C3C",
"J!	c #F6EFEF",
"K!	c #F3E9E9",
"L!	c #B77373",
"M!	c #810707",
"N!	c #7F0101",
"O!	c #800101",
"P!	c #7F0404",
"Q!	c #922828",
"R!	c #B56A6A",
"S!	c #D8B1B1",
"T!	c #F9F3F3",
"U!	c #AB6A6A",
"V!	c #750606",
"W!	c #7E0404",
"X!	c #7F0606",
"Y!	c #993838",
"Z!	c #E0C0C0",
"[!	c #FCFBFB",
"]!	c #D4AAAA",
"^!	c #810505",
"_!	c #8C1919",
"`!	c #BB7878",
"a!	c #DCBCBC",
"b!	c #B06767",
"c!	c #A44D4D",
"d!	c #EFE1E1",
"e!	c #EFE0E0",
"f!	c #9A3939",
"g!	c #820A0A",
"h!	c #A95353",
"i!	c #F9F4F4",
"j!	c #E9D4D4",
"k!	c #8A1717",
"l!	c #800404",
"m!	c #AC5A5A",
"n!	c #F5EAEA",
"o!	c #C58D8D",
"p!	c #871414",
"q!	c #CC9999",
"r!	c #BE8080",
"s!	c #810404",
"t!	c #C18484",
"u!	c #A34B4B",
"v!	c #C08484",
"w!	c #ECDBDB",
"x!	c #7F0808",
"y!	c #C58A8A",
"z!	c #780303",
"{!	c #7F0202",
"|!	c #7F0707",
"}!	c #993737",
"~!	c #DDBCBC",
" #	c #A34949",
"!#	c #7E0101",
"##	c #810606",
"$#	c #881313",
"%#	c #952F2F",
"&#	c #A85353",
"'#	c #C38686",
"(#	c #EDDCDC",
")#	c #963232",
"*#	c #7F0505",
"+#	c #912828",
",#	c #D3A9A9",
"-#	c #ECD9D9",
".#	c #912424",
"0#	c #851010",
"1#	c #A95151",
"2#	c #F0E2E2",
"3#	c #E8D3D3",
"4#	c #7A0303",
"5#	c #942E2E",
"6#	c #C79090",
"7#	c #C58C8C",
"8#	c #871010",
"9#	c #820808",
":#	c #A44A4A",
";#	c #E8D2D2",
"<#	c #FBF9F9",
"=#	c #C28787",
">#	c #840808",
"?#	c #8C2121",
"@#	c #BD7F7F",
"A#	c #EFDFDF",
"B#	c #D4ACAC",
"C#	c #840B0B",
"D#	c #A75050",
"E#	c #902424",
"F#	c #CB9898",
"G#	c #FEFFFF",
"! ! ! ! ! ! ! ! ! ! ! ! ! # $ ! ! ! ! ! ! ! ! ! ! ! ! ! ! ! ! ! ",
"! ! ! ! ! $ % # $ ! ! ! # & ' $ ! ! $ % ( ! ! ! ! ! ! ! ! ! ! ! ",
"! ! ! ! ! ) * + , - ! . 0 1 2 3 ! - 4 5 6 ! ! ! ! ! ! ! ! ! ! ! ",
"! ! ! ! ! 7 8 9 : ; ! < = > ? @ - 3 A B C ( ! ! ! ! D E . - ! ! ",
"! ! ! ! ! F G H I J ! K L M N O # P Q R S T ! ! ! ! U V W X - ! ",
"! ! ! ! ! Y Z [ ] ^ ! _ ` a b c 3 d e e S f ! ! ! . g h i j E ! ",
"! ! ! ! ! ) k l m n ! J o p q - r s e t u ( ! ! ( v w > e x ) ! ",
"! ! ! ! ! $ y z { - ! ( & | } ! r ~  !!!#!! ! ! $!%!&!e '!(!)!! ",
"! ! ! ! ! ! ( *!. +!+!$ . ,!- ! -!.!0!E $ ! ! ( 1!2!R e '!3!4!! ",
"! ! ! ! ! $ % 5!6!7!7!8!5!5!E *!$ % *!! ! ! ! 9!:!R e e e ;!<!! ",
"! ! ! ! $ =!>!?!@! ! !A!N B!C!D!E!# D ! ! ! - F!G!> e R H!I!J!! ",
"! ! ! - K!L!M!N!'!'!'!'!O!N!P!B Q!R!S!% $ ! T!U!V!H!W!X!Y!Z![!! ",
"! ! ! D ]!X!e e '!'!'!'!'!e e e N!^!_!`!=!( - a!b!c!b m d!D - ! ",
"! ! ! e!f!> e '!'!'!'!'!'!'!'!'!e e R g!h!{ - D # i!} % $ ! ! ! ",
"! ! - j!k!R '!'!'!'!'!'!'!'!'!'!'!'!e e l!m!n!! ! ! ! ! ! ! ! ! ",
"! ! i!o!2!e '!'!'!'!'!'!'!'!'!'!'!'!'!e R p!q!! ! ! ! ! ! ! ! ! ",
"! ! 5!r!> e '!'!'!'!'!'!'!'!'!'!'!'!'!'!R s!t!! ! ! ! ! ! ! ! ! ",
"! ! K!u!> '!'!'!'!'!'!'!'!'!'!'!'!'!'!'!e s!v!! ! ! ! ! ! ! ! ! ",
"! - w!x!R '!'!'!'!'!'!'!'!'!'!'!'!e e e R t y!! ! ! ! ! ! ! ! ! ",
"! X F!z!e '!'!'!'!'!'!'!'!'!'!e e e {!W!|!}!~!! ! ! ! ! ! ! ! ! ",
"! d! #!#e '!'!'!'!'!'!'!'!e e N!##$#%#&#'#^ D ! ! ! ! ! ! ! ! ! ",
"! (#)#e e '!'!'!'!'!'!'!e e *#+#+ ,#; E *!( ! ! ! ! ! ! ! ! ! ! ",
"! -#.#'!'!'!'!'!'!'!'!e {!0#1#2## . - ! ! ! ! ! ! ! ! ! ! ! ! ! ",
"! 3#w '!'!'!'!'!'!e e 4#5#6#3 - ! ! ! ! ! ! ! ! ! ! ! ! ! ! ! ! ",
"! 7#8#'!'!'!'!'!e N!9#:#;#<#- ! ! ! ! ! ! ! ! ! ! ! ! ! ! ! ! ! ",
"! =#>#e '!'!e e !#?#@#A#( ! ! ! ! ! ! ! ! ! ! ! ! ! ! ! ! ! ! ! ",
"! =#9#e '!e R s!Q!B#*!$ ! ! ! ! ! ! ! ! ! ! ! ! ! ! ! ! ! ! ! ! ",
"! 7#C#'!e !#Q D#^ . ! ! ! ! ! ! ! ! ! ! ! ! ! ! ! ! ! ! ! ! ! ! ",
"! 4 f!(!2!E#r!} ( ! ! ! ! ! ! ! ! ! ! ! ! ! ! ! ! ! ! ! ! ! ! ! ",
"! $ O F#]!5!*!G#! ! ! ! ! ! ! ! ! ! ! ! ! ! ! ! ! ! ! ! ! ! ! ! ",
"! ! - +!. ! ! ! ! ! ! ! ! ! ! ! ! ! ! ! ! ! ! ! ! ! ! ! ! ! ! ! ",
"! ! ! ! ! ! ! ! ! ! ! ! ! ! ! ! ! ! ! ! ! ! ! ! ! ! ! ! ! ! ! ! "};