/* XPM */
static const char * logo48_xpm[] = {
"48 48 244 2",
"  	c None",
". 	c #EAD5D5",
"+ 	c #EAD4D4",
"@ 	c #C99191",
"# 	c #840909",
"$ 	c #7E0000",
"% 	c #A65252",
"& 	c #E8D0D0",
"* 	c #C08080",
"= 	c #902020",
"- 	c #A44949",
"; 	c #E7D0D0",
"> 	c #EBD5D5",
", 	c #942A2A",
"' 	c #7D0000",
") 	c #800000",
"! 	c #BC7878",
"~ 	c #E1C3C3",
"{ 	c #9D3A3A",
"] 	c #CC9898",
"^ 	c #C78D8D",
"/ 	c #7C0606",
"( 	c #790000",
"_ 	c #993333",
": 	c #ECDADA",
"< 	c #BD7B7B",
"[ 	c #810404",
"} 	c #7F0000",
"| 	c #AE6464",
"1 	c #E9D3D3",
"2 	c #8C1E1E",
"3 	c #881010",
"4 	c #DCBABA",
"5 	c #B76D6D",
"6 	c #800303",
"7 	c #7C0000",
"8 	c #C18181",
"9 	c #AE5C5C",
"0 	c #B16666",
"a 	c #FFFEFE",
"b 	c #9E3D3D",
"c 	c #7B0000",
"d 	c #C48888",
"e 	c #810A0A",
"f 	c #780000",
"g 	c #B76F6F",
"h 	c #A64D4D",
"i 	c #800707",
"j 	c #C38484",
"k 	c #BE7C7C",
"l 	c #9D3B3B",
"m 	c #C68A8A",
"n 	c #AE5B5B",
"o 	c #DFC0C0",
"p 	c #DEBBBB",
"q 	c #841414",
"r 	c #B36666",
"s 	c #A85151",
"t 	c #8B1919",
"u 	c #EEDCDC",
"v 	c #8B1616",
"w 	c #9B3636",
"x 	c #C78E8E",
"y 	c #7D0707",
"z 	c #7A0000",
"A 	c #800202",
"B 	c #CA9494",
"C 	c #9C3636",
"D 	c #BF7F7F",
"E 	c #B16363",
"F 	c #C38888",
"G 	c #C89191",
"H 	c #840808",
"I 	c #B56A6A",
"J 	c #E7CFCF",
"K 	c #993434",
"L 	c #810000",
"M 	c #820606",
"N 	c #D1A1A1",
"O 	c #CB9898",
"P 	c #740000",
"Q 	c #E8D1D1",
"R 	c #D5AAAA",
"S 	c #891313",
"T 	c #750000",
"U 	c #A44848",
"V 	c #F5EAEA",
"W 	c #8D1C1C",
"X 	c #DDB9B9",
"Y 	c #C48989",
"Z 	c #A95959",
"` 	c #EFDEDE",
" .	c #A74F4F",
"..	c #9F3D3D",
"+.	c #DAB4B4",
"@.	c #C28484",
"#.	c #A54B4B",
"$.	c #E5C9C9",
"%.	c #BA7373",
"&.	c #860B0B",
"*.	c #D3A4A4",
"=.	c #E4C8C8",
"-.	c #962E2E",
";.	c #973232",
">.	c #DCB8B8",
",.	c #ECD8D8",
"'.	c #E5CCCC",
").	c #800101",
"!.	c #830909",
"~.	c #8F2121",
"{.	c #CE9D9D",
"].	c #B16262",
"^.	c #8D1E1E",
"/.	c #D7AEAE",
"(.	c #DFBEBE",
"_.	c #B36565",
":.	c #BB7777",
"<.	c #D8B0B0",
"[.	c #CC9797",
"}.	c #820D0D",
"|.	c #902323",
"1.	c #D8B1B1",
"2.	c #9F4343",
"3.	c #9D4343",
"4.	c #DBB6B6",
"5.	c #C18383",
"6.	c #B26565",
"7.	c #AA5555",
"8.	c #A95353",
"9.	c #AB5757",
"0.	c #B46767",
"a.	c #BD7979",
"b.	c #DDBABA",
"c.	c #E0C0C0",
"d.	c #CB9797",
"e.	c #C48787",
"f.	c #9C3838",
"g.	c #891616",
"h.	c #850C0C",
"i.	c #810606",
"j.	c #840A0A",
"k.	c #861111",
"l.	c #881616",
"m.	c #8F1E1E",
"n.	c #A14141",
"o.	c #B56B6B",
"p.	c #EDDCDC",
"q.	c #9E3E3E",
"r.	c #8B1C1C",
"s.	c #DEBCBC",
"t.	c #B66C6C",
"u.	c #7F0101",
"v.	c #7E0202",
"w.	c #952A2A",
"x.	c #AA5454",
"y.	c #DFBFBF",
"z.	c #E1C2C2",
"A.	c #830707",
"B.	c #D4A6A6",
"C.	c #C99393",
"D.	c #881212",
"E.	c #A74D4D",
"F.	c #DDBBBB",
"G.	c #770000",
"H.	c #922B2B",
"I.	c #D4A9A9",
"J.	c #E4C7C7",
"K.	c #B36767",
"L.	c #E2C5C5",
"M.	c #B26A6A",
"N.	c #A95757",
"O.	c #A24747",
"P.	c #AA5B5B",
"Q.	c #BE7D7D",
"R.	c #E1C1C1",
"S.	c #A64949",
"T.	c #922323",
"U.	c #DAB6B6",
"V.	c #841212",
"W.	c #8A1414",
"X.	c #DEBDBD",
"Y.	c #C18080",
"Z.	c #800404",
"`.	c #8B1717",
" +	c #E0BFBF",
".+	c #AD6060",
"++	c #A04040",
"@+	c #E6CCCC",
"#+	c #942B2B",
"$+	c #D0A2A2",
"%+	c #A54A4A",
"&+	c #FBF7F7",
"*+	c #820505",
"=+	c #860C0C",
"-+	c #CB9696",
";+	c #E2C3C3",
">+	c #760000",
",+	c #983030",
"'+	c #B97474",
")+	c #932727",
"!+	c #CC9999",
"~+	c #983131",
"{+	c #891515",
"]+	c #912424",
"^+	c #A34747",
"/+	c #B46868",
"(+	c #C08181",
"_+	c #DEBABA",
":+	c #F1E2E2",
"<+	c #891818",
"[+	c #9C3939",
"}+	c #B66D6D",
"|+	c #D3A8A8",
"1+	c #850F0F",
"2+	c #820808",
"3+	c #C89090",
"4+	c #820404",
"5+	c #810909",
"6+	c #9B3535",
"7+	c #C88F8F",
"8+	c #8C1B1B",
"9+	c #AC5C5C",
"0+	c #9E3C3C",
"a+	c #D9B1B1",
"b+	c #9C3B3B",
"c+	c #871111",
"d+	c #E9D4D4",
"e+	c #ECD9D9",
"f+	c #8E1E1E",
"g+	c #9A3A3A",
"h+	c #D0A0A0",
"i+	c #7D0101",
"j+	c #B87171",
"k+	c #8C2020",
"l+	c #810303",
"m+	c #AD5A5A",
"n+	c #EDDBDB",
"o+	c #902121",
"p+	c #840707",
"q+	c #B16767",
"r+	c #BB7A7A",
"s+	c #9B3838",
"t+	c #A44B4B",
"u+	c #EAD6D6",
"                                                                                                ",
"                                                                                                ",
"                                      . +                                                       ",
"                                    @ # $ % &                                                   ",
"                * = - ;           > , ' ) $ !           ~ { ]                                   ",
"              ^ / ) ( _ :         < [ } ) $ |         1 2 ' 3 4                                 ",
"              5 6 ) ) 7 8         9 ( ) ) $ 0       a b c ) ) 5                                 ",
"              d e ) ) f g         h c ) ) i j       k 7 ) ) ) l                   m _ n o       ",
"              p q ) ) ( r         s c ) ) t &     u v ) ) ) ) w                 x y $ z A B     ",
"                C ' ) 7 D         E c ) f F       G H ) ) ) ) I               J K } ) L $ M N   ",
"                O P ( l Q         R S T U V       < ) ) ) $ W X               Y } ) ) ) ) $ Z   ",
"                `  ...+.            @.#.$.        %.} ) } &.*.              =.-.c ) ) ) ) } ;.>.",
"                  ,.'.                            * ).!.~.{.                ].( L ) ) ) ) } ^./.",
"                                                  (._.:.<.                [.}.) ) ) ) ) ) } |.1.",
"                                                                        > 2.} ) ) ) ) ) ) $ 3.  ",
"                    4.5.6.7.8.9.0.a.] b.c.                              d.$ ) ) ) ) ) ) ) ' 0.  ",
"                e.f.g.h.i.A A A M j.k.l.m.n.o.F c.                    p.q.c ) ) ) ) ) ) ' r.s.  ",
"              t.i.u.) ) ) ) ) ) ) ) ) ) ) u.v.# w.x.y.                z.f ) ) ) ) ) ) 7 A.B.    ",
"            C.7 ) ) ) ) ) ) ) ) ) ) ) ) ) ) ) } ' $ D.E.F.            s.G.7 ' ' $ 7 $ H.I.      ",
"          J.!.$ ) ) ) ) ) ) ) ) ) ) ) ) ) ) ) ) ) ) $ } S K.L.          ^ M.N.O.2.P.Q.R.        ",
"          S.7 ) ) ) ) ) ) ) ) ) ) ) ) ) ) ) ) ) ) ) ) ) ) } T.U.                                ",
"        ~ V.L ) ) ) ) ) ) ) ) ) ) ) ) ) ) ) ) ) ) ) ) ) ) ) } W.X.                              ",
"        Y.Z.) ) ) ) ) ) ) ) ) ) ) ) ) ) ) ) ) ) ) ) ) ) ) ) ) $ `. +                            ",
"        .+$ ) ) ) ) ) ) ) ) ) ) ) ) ) ) ) ) ) ) ) ) ) ) ) ) ) ) $ ++                            ",
"      @+#+} ) ) ) ) ) ) ) ) ) ) ) ) ) ) ) ) ) ) ) ) ) ) ) ) ) ) } W.$+                          ",
"      L.' ) ) ) ) ) ) ) ) ) ) ) ) ) ) ) ) ) ) ) ) ) ) ) ) ) ) ) ) 6 d                           ",
"      O f ) ) ) ) ) ) ) ) ) ) ) ) ) ) ) ) ) ) ) ) ) ) ) ) ) ) ) ) Z.D                           ",
"      %+7 ) ) ) ) ) ) ) ) ) ) ) ) ) ) ) ) ) ) ) ) ) ) ) ) ) ) ) ) Z.e.                          ",
"    &+*+} ) ) ) ) ) ) ) ) ) ) ) ) ) ) ) ) ) ) ) ) ) ) ) ) ) ) ) ) =+-+                          ",
"    ;+>+) ) ) ) ) ) ) ) ) ) ) ) ) ) ) ) ) ) ) ) ) ) ) ) ) ) ) ) 7 ,++                           ",
"    '+z ) ) ) ) ) ) ) ) ) ) ) ) ) ) ) ) ) ) ) ) ) ) ) ) ) u.v.Z.)+!+                            ",
"    ~+} ) ) ) ) ) ) ) ) ) ) ) ) ) ) ) ) ) ) ) ) } ' M {+]+^+/+(+_+                              ",
"  :+<+) ) ) ) ) ) ) ) ) ) ) ) ) ) ) ) ) ) ) } ( h.[+}+/.L.                                      ",
"  |+1+) ) ) ) ) ) ) ) ) ) ) ) ) ) ) ) ) ) $ 2+%+3+V                                             ",
"  @.4+) ) ) ) ) ) ) ) ) ) ) ) ) ) ) ) ' 5+6+7+                                                  ",
"  '+} ) ) ) ) ) ) ) ) ) ) ) ) ) ) L z 8+k 1                                                     ",
"  9+} ) ) ) ) ) ) ) ) ) ) ) ) ) ) G.0+a+                                                        ",
"  b+} ) ) ) ) ) ) ) ) ) ) ) ) ' c+%.d+                                                          ",
"e+f+} ) ) ) ) ) ) ) ) ) ) } G.g+h+                                                              ",
",.j.) ) ) ) ) ) ) ) ) ) } i+j+.                                                                 ",
",.).) ) ) ) ) ) ) ) } $ k+-+                                                                    ",
",.l+) ) ) ) ) ) ) $ 7 m+y.                                                                      ",
"n+o+} ) ) ) ) ) 7 p+d.                                                                          ",
"  q+' } ) ) $ i.0+'.                                                                            ",
"  J r+s+l+4+t+B                                                                                 ",
"        =.u+                                                                                    ",
"                                                                                                ",
"                                                                                                "};
